<?xml version="1.0" encoding="iso-8859-1"?>
<!-- Uploaded to: SVG Repo, www.svgrepo.com, Generator: SVG Repo Mixer Tools -->
<svg version="1.1" id="Layer_1" xmlns="http://www.w3.org/2000/svg" xmlns:xlink="http://www.w3.org/1999/xlink" 
	 viewBox="0 0 512 512" xml:space="preserve">
<rect x="7.896" y="83.93" style="fill:#5EBAE7;" width="496.212" height="344.144"/>
<rect x="256.002" y="83.93" style="fill:#36A9E1;" width="248.106" height="344.144"/>
<g>
	<polygon style="fill:#FFFFFF;" points="312.023,308.022 207.98,308.022 47.912,396.058 464.089,396.058 	"/>
	<rect x="39.909" y="115.935" style="fill:#FFFFFF;" width="432.18" height="192.086"/>
</g>
<circle style="fill:#5EBAE7;" cx="368.043" cy="260.002" r="64.027"/>
<g>
	<polygon style="fill:#D5C9B3;" points="464.089,308.022 288.013,308.022 464.089,396.058 472.091,388.055 	"/>
	<polygon style="fill:#D5C9B3;" points="39.909,308.022 215.983,308.022 39.909,396.058 39.909,388.055 	"/>
</g>
<polygon style="fill:#CBBBA0;" points="183.97,239.994 127.945,300.019 135.95,308.022 376.051,308.022 392.058,300.019 
	288.013,195.975 215.983,268.005 "/>
<g>
	<path style="fill:#1D1D1B;" d="M512,435.968H0V76.032h512V435.968z M15.792,420.176h480.416V91.824H15.792V420.176z"/>
	<path style="fill:#1D1D1B;" d="M32.013,108.044v295.91h447.974v-295.91H32.013z M47.805,315.918h134.73l-134.73,67.364V315.918z
		 M376.997,300.126H135.003l48.966-48.966l28.011,28.011l72.03-72.03L376.997,300.126z M324.19,224.986
		c10.567-13.189,26.714-21.115,43.858-21.115c30.95,0,56.13,25.18,56.13,56.131c0,15.128-6.12,29.589-16.883,40.125h-7.234h-0.731
		L324.19,224.986z M263.896,388.162v-40.124h-15.792v40.124H73.358l144.489-72.245h30.257v16.114h15.792v-16.114h30.257
		l144.489,72.245L263.896,388.162L263.896,388.162z M464.195,383.283l-134.73-67.364h134.73V383.283z M464.195,300.126h-36.48
		c7.902-11.757,12.256-25.701,12.256-40.125c0-39.658-32.264-71.923-71.922-71.923c-21.37,0-41.534,9.61-55.076,25.689
		l-28.96-28.959l-72.03,72.03l-28.011-28.011l-71.3,71.3H47.805v-176.29h416.39L464.195,300.126L464.195,300.126z"/>
	<rect x="79.926" y="156.069" style="fill:#1D1D1B;" width="80.035" height="15.792"/>
	<rect x="79.926" y="188.074" style="fill:#1D1D1B;" width="16.006" height="15.792"/>
	<rect x="111.935" y="188.074" style="fill:#1D1D1B;" width="16.007" height="15.792"/>
	<rect x="143.951" y="188.074" style="fill:#1D1D1B;" width="16.007" height="15.792"/>
</g>
</svg>